<svg xmlns="http://www.w3.org/2000/svg" width="16" height="16" viewBox="0 0 16 16">
  <defs>
    <style>
      .cls-1 {
        fill: #fff;
        fill-rule: evenodd;
      }
    </style>
  </defs>
  <path id="Settings" class="cls-1" d="M228,123a6,6,0,1,1-6,6A6,6,0,0,1,228,123Zm0,2a4,4,0,1,1-4,4A4,4,0,0,1,228,125Zm-1-4h2v3h-2v-3Zm-7,7h3v2h-3v-2Zm7,6h2v3h-2v-3Zm6-6h3v2h-3v-2Zm-10.568-6.013,2.58,2.244-1.444,1.782-2.58-2.244Zm11.136,0-2.58,2.244,1.444,1.782,2.58-2.244Zm-11.136,14.026,2.58-2.244-1.444-1.782-2.58,2.244Zm11.136,0-2.58-2.244,1.444-1.782,2.58,2.244Z" transform="translate(-220 -121)"/>
</svg>
