<svg xmlns="http://www.w3.org/2000/svg" width="16" height="16" viewBox="0 0 16 16">
  <defs>
    <style>
      .cls-1 {
        fill: #fff;
        fill-rule: evenodd;
      }
    </style>
  </defs>
  <path id="User" class="cls-1" d="M264,219H250a1,1,0,0,1-1-1v-1h0.1a5.988,5.988,0,0,1,4.547-4.828A3.979,3.979,0,0,1,253,210v-3a4,4,0,0,1,8,0v3a3.979,3.979,0,0,1-.648,2.172A5.988,5.988,0,0,1,264.9,217H265v1A1,1,0,0,1,264,219Zm-5-12a2,2,0,0,0-4,0v3a2,2,0,0,0,4,0v-3Zm0,7h-4a3.992,3.992,0,0,0-3.859,3h11.718A3.991,3.991,0,0,0,259,214Z" transform="translate(-249 -203)"/>
</svg>
